<?xml version="1.0" encoding="UTF-8" standalone="no"?>
<!DOCTYPE svg PUBLIC "-//W3C//DTD SVG 1.1//EN" "http://www.w3.org/Graphics/SVG/1.1/DTD/svg11.dtd">
<svg xmlns="http://www.w3.org/2000/svg" version="1.1" viewBox="0.00 0.00 272.00 273.00">
<path fill="#689946" d="
  M 134.62 52.97
  C 125.10 47.39 114.81 42.64 105.60 36.45
  Q 104.53 35.73 103.93 34.64
  A 1.05 1.05 0.0 0 1 104.25 33.27
  Q 114.59 26.08 124.21 20.60
  Q 128.97 17.89 133.98 20.50
  Q 139.32 23.29 144.22 26.54
  Q 153.99 33.02 162.12 37.58
  C 169.79 41.87 177.36 46.71 185.20 50.77
  C 189.88 53.20 194.62 55.22 198.48 58.96
  C 200.95 61.36 198.97 64.29 198.89 67.12
  Q 198.66 74.97 198.88 83.92
  C 199.01 89.62 198.32 95.09 198.51 100.65
  Q 199.02 116.24 198.69 132.19
  Q 198.52 140.88 192.08 145.46
  Q 184.97 150.51 176.10 155.46
  A 2.06 2.06 0.0 0 1 173.03 153.64
  Q 173.25 125.51 173.62 99.97
  C 173.70 94.63 173.35 89.19 173.55 83.85
  C 173.74 79.01 172.59 75.48 168.58 72.67
  Q 162.74 68.55 156.17 65.03
  Q 144.73 58.91 134.62 52.97
  Z"
/>
<path fill="#689946" d="
  M 163.47 109.81
  A 1.37 1.37 0.0 0 1 162.26 109.71
  C 153.29 104.22 144.43 98.76 135.08 93.70
  Q 126.74 89.19 120.17 84.89
  Q 108.03 76.97 95.45 70.69
  Q 94.30 70.11 93.15 70.62
  Q 85.09 74.16 78.33 78.35
  Q 65.50 86.31 54.36 93.06
  Q 50.42 95.45 45.99 97.69
  C 39.99 100.72 34.41 104.07 28.93 107.91
  Q 27.54 108.88 25.99 108.91
  A 1.67 1.66 87.5 0 1 24.30 107.36
  Q 23.64 97.21 23.95 84.98
  C 24.08 79.99 26.42 77.11 30.76 74.74
  Q 38.53 70.50 45.12 66.33
  Q 51.53 62.26 59.56 57.83
  Q 73.30 50.25 89.22 41.45
  C 91.29 40.30 94.89 38.44 97.09 39.92
  C 106.49 46.22 116.41 51.38 126.75 57.02
  C 135.12 61.58 143.73 66.99 152.26 71.68
  Q 156.11 73.80 159.86 76.34
  C 166.12 80.59 165.44 88.62 165.03 95.40
  C 164.79 99.33 165.26 103.15 165.09 107.08
  Q 165.00 109.21 163.47 109.81
  Z"
/>
<path fill="#689946" d="
  M 160.74 200.68
  C 152.86 197.62 144.95 192.78 138.32 187.69
  A 1.23 1.23 0.0 0 1 138.44 185.65
  Q 150.95 178.23 163.70 171.19
  C 171.34 166.98 178.87 161.90 186.95 158.20
  C 192.78 155.53 205.10 149.13 205.60 141.90
  Q 205.85 138.26 206.06 134.49
  C 206.34 129.38 205.88 124.45 206.10 119.23
  C 206.39 112.12 205.72 105.20 206.19 98.25
  C 206.65 91.57 207.03 85.00 206.44 78.30
  Q 205.87 71.79 206.14 65.35
  A 1.62 1.62 0.0 0 1 208.63 64.05
  Q 216.06 68.74 223.58 72.98
  Q 228.70 75.87 231.51 79.75
  C 233.53 82.53 233.76 87.26 233.73 90.70
  Q 233.49 122.00 233.73 156.93
  C 233.76 161.36 231.63 164.34 227.74 166.45
  Q 205.82 178.37 189.40 188.03
  Q 178.87 194.23 168.24 199.97
  Q 164.35 202.08 160.74 200.68
  Z"
/>
<path fill="#689946" d="
  M 51.29 217.42
  Q 50.10 217.52 48.85 216.85
  Q 36.54 210.28 29.27 205.78
  C 24.46 202.80 23.88 198.15 23.96 192.20
  Q 24.40 158.30 23.89 123.75
  C 23.82 118.98 29.59 115.43 33.51 113.17
  C 44.14 107.03 55.36 101.24 66.10 94.83
  Q 77.29 88.15 89.24 81.47
  Q 94.12 78.73 97.97 80.86
  Q 107.13 85.94 115.09 90.77
  C 117.08 91.98 120.17 94.26 117.19 96.64
  Q 115.35 98.11 113.45 99.28
  C 104.23 104.94 94.55 109.61 85.63 114.94
  C 76.50 120.39 66.93 125.37 57.52 130.51
  C 52.47 133.26 51.36 137.20 51.41 142.94
  Q 51.47 149.84 51.32 157.01
  C 51.13 166.42 51.80 175.84 51.53 185.17
  C 51.27 194.60 51.86 203.90 52.31 213.40
  Q 52.38 214.86 52.17 216.57
  A 0.98 0.97 -88.9 0 1 51.29 217.42
  Z"
/>
<path fill="#689946" d="
  M 85.99 191.14
  Q 86.36 195.46 86.20 200.86
  Q 86.03 206.67 91.46 209.84
  C 104.69 217.57 117.55 225.41 130.67 232.64
  Q 142.21 239.01 154.55 245.88
  A 0.74 0.74 0.0 0 1 154.79 246.96
  Q 153.85 248.23 152.25 249.21
  Q 146.52 252.70 140.77 256.32
  C 134.34 260.37 127.90 262.60 120.82 258.39
  Q 113.92 254.28 106.76 250.29
  C 95.65 244.10 85.00 237.47 74.05 231.41
  C 69.36 228.82 63.55 225.77 60.15 221.44
  Q 58.98 219.96 59.11 217.71
  Q 59.61 209.12 59.26 201.89
  Q 58.88 193.85 58.88 186.64
  Q 58.86 165.51 58.78 145.73
  C 58.75 139.69 63.88 135.56 69.41 132.62
  Q 75.88 129.18 82.66 125.59
  Q 85.43 124.12 85.93 127.21
  C 86.28 129.40 86.71 131.57 86.72 133.77
  Q 86.78 148.28 86.63 162.53
  Q 86.57 168.87 85.96 175.65
  Q 85.30 183.02 85.99 191.14
  Z"
/>
<path fill="#689946" d="
  M 145.21 232.63
  Q 134.15 225.99 121.11 218.91
  C 113.22 214.62 105.41 209.61 97.45 204.99
  C 93.36 202.62 91.12 198.83 90.87 193.76
  Q 90.60 188.24 90.45 182.52
  C 90.32 177.75 90.47 168.77 98.49 174.04
  Q 101.47 175.99 104.40 177.56
  Q 130.63 191.61 155.59 207.41
  C 157.77 208.79 160.06 209.98 162.44 210.96
  Q 164.02 211.61 165.62 210.69
  C 174.42 205.62 182.98 200.24 191.62 195.30
  Q 200.36 190.30 209.82 184.67
  C 216.63 180.62 224.01 176.69 231.01 172.77
  Q 232.96 171.67 233.26 173.88
  Q 233.63 176.54 233.63 179.08
  Q 233.63 188.14 233.87 195.80
  C 234.07 202.09 228.25 206.08 223.18 208.92
  C 214.50 213.79 206.48 219.25 197.39 223.87
  C 186.90 229.20 176.78 236.59 165.21 241.40
  C 163.76 242.00 162.10 241.76 160.73 241.10
  Q 153.47 237.60 145.21 232.63
  Z"
/>
</svg>
