<?xml version="1.0" encoding="UTF-8" standalone="no"?>
<!DOCTYPE svg PUBLIC "-//W3C//DTD SVG 1.1//EN" "http://www.w3.org/Graphics/SVG/1.1/DTD/svg11.dtd">
<svg xmlns="http://www.w3.org/2000/svg" version="1.1" viewBox="0.00 0.00 226.00 227.00">
<g stroke-width="2.00" fill="none" stroke-linecap="butt">
<path stroke="#507e72" vector-effect="non-scaling-stroke" d="
  M 143.25 62.96
  L 143.24 129.79
  A 0.58 0.58 0.0 0 0 144.08 130.31
  Q 149.42 127.56 154.29 124.04
  C 158.00 121.36 161.10 119.55 164.75 117.66
  A 2.18 2.17 -13.8 0 0 165.93 115.73
  L 165.92 49.77
  A 1.21 1.21 0.0 0 0 165.31 48.72
  L 108.04 15.63
  A 1.83 1.82 44.7 0 0 106.21 15.63
  L 85.22 27.73
  A 0.58 0.58 0.0 0 0 85.22 28.74
  L 142.62 61.86
  Q 143.25 62.22 143.25 62.96"
/>
<path stroke="#507e72" vector-effect="non-scaling-stroke" d="
  M 78.05 58.33
  Q 78.25 58.21 78.45 58.33
  L 136.18 91.77
  A 0.57 0.57 0.0 0 0 137.04 91.28
  L 137.03 66.73
  A 1.68 1.66 -75.2 0 0 136.20 65.28
  L 78.71 32.31
  A 1.01 1.00 44.5 0 0 77.72 32.31
  L 20.24 65.25
  A 1.61 1.60 -15.3 0 0 19.43 66.66
  Q 19.55 78.28 19.36 91.15
  Q 19.36 91.36 19.53 91.50
  Q 20.00 91.90 20.53 91.59
  L 78.05 58.33"
/>
<path stroke="#507e72" vector-effect="non-scaling-stroke" d="
  M 171.45 121.30
  C 168.98 122.93 166.79 124.89 164.22 126.37
  Q 137.38 141.89 113.78 155.25
  A 0.39 0.39 0.0 0 0 113.78 155.92
  L 135.62 168.75
  Q 136.01 168.98 136.40 168.75
  L 194.10 135.45
  A 1.78 1.77 75.2 0 0 194.99 133.91
  L 194.98 67.73
  A 2.19 2.18 -75.0 0 0 193.90 65.84
  L 172.60 53.37
  A 0.53 0.53 0.0 0 0 171.80 53.90
  Q 171.92 54.85 171.92 55.77
  Q 172.06 88.00 172.00 120.28
  A 1.22 1.22 0.0 0 1 171.45 121.30"
/>
<path stroke="#507e72" vector-effect="non-scaling-stroke" d="
  M 43.53 111.68
  L 99.79 79.30
  A 0.87 0.87 0.0 0 0 99.79 77.79
  L 79.04 65.91
  A 1.82 1.80 -44.7 0 0 77.25 65.91
  Q 51.08 80.93 23.80 96.73
  Q 21.86 97.85 20.13 98.55
  A 1.04 1.04 0.0 0 0 19.47 99.52
  L 19.44 166.74
  A 2.21 2.21 0.0 0 0 20.54 168.65
  L 41.29 180.66
  A 0.51 0.50 -45.6 0 0 41.81 180.65
  Q 42.15 180.43 42.15 180.04
  Q 42.17 146.66 42.19 113.99
  A 2.67 2.66 -15.0 0 1 43.53 111.68"
/>
<path stroke="#507e72" vector-effect="non-scaling-stroke" d="
  M 53.84 188.10
  Q 80.22 203.15 106.65 218.54
  A 1.26 1.24 -44.6 0 0 107.90 218.54
  L 129.11 206.32
  A 0.68 0.67 45.1 0 0 129.11 205.15
  L 72.13 172.32
  A 1.84 1.82 15.2 0 1 71.21 170.74
  L 71.22 104.04
  A 0.48 0.48 0.0 0 0 70.50 103.63
  L 49.88 115.34
  Q 48.32 116.23 48.32 118.03
  Q 48.41 150.42 48.35 182.98
  C 48.35 185.73 51.83 186.95 53.84 188.10"
/>
<path stroke="#507e72" vector-effect="non-scaling-stroke" d="
  M 136.50 175.61
  A 1.13 1.11 44.6 0 1 135.37 175.61
  Q 109.58 160.60 80.31 143.71
  Q 79.11 143.02 77.89 142.55
  Q 77.19 142.28 77.18 143.04
  L 77.14 167.24
  A 1.92 1.90 15.4 0 0 78.10 168.91
  L 135.44 201.87
  A 1.21 1.19 -44.6 0 0 136.63 201.87
  L 193.77 169.03
  Q 194.96 168.35 194.97 166.98
  L 194.99 142.92
  A 0.60 0.60 0.0 0 0 194.09 142.40
  L 136.50 175.61"
/>
</g>
<path fill="#7cd3b2" d="
  M 0.00 0.00
  L 226.00 0.00
  L 226.00 227.00
  L 0.00 227.00
  L 0.00 0.00
  Z
  M 143.25 62.96
  L 143.24 129.79
  A 0.58 0.58 0.0 0 0 144.08 130.31
  Q 149.42 127.56 154.29 124.04
  C 158.00 121.36 161.10 119.55 164.75 117.66
  A 2.18 2.17 -13.8 0 0 165.93 115.73
  L 165.92 49.77
  A 1.21 1.21 0.0 0 0 165.31 48.72
  L 108.04 15.63
  A 1.83 1.82 44.7 0 0 106.21 15.63
  L 85.22 27.73
  A 0.58 0.58 0.0 0 0 85.22 28.74
  L 142.62 61.86
  Q 143.25 62.22 143.25 62.96
  Z
  M 78.05 58.33
  Q 78.25 58.21 78.45 58.33
  L 136.18 91.77
  A 0.57 0.57 0.0 0 0 137.04 91.28
  L 137.03 66.73
  A 1.68 1.66 -75.2 0 0 136.20 65.28
  L 78.71 32.31
  A 1.01 1.00 44.5 0 0 77.72 32.31
  L 20.24 65.25
  A 1.61 1.60 -15.3 0 0 19.43 66.66
  Q 19.55 78.28 19.36 91.15
  Q 19.36 91.36 19.53 91.50
  Q 20.00 91.90 20.53 91.59
  L 78.05 58.33
  Z
  M 171.45 121.30
  C 168.98 122.93 166.79 124.89 164.22 126.37
  Q 137.38 141.89 113.78 155.25
  A 0.39 0.39 0.0 0 0 113.78 155.92
  L 135.62 168.75
  Q 136.01 168.98 136.40 168.75
  L 194.10 135.45
  A 1.78 1.77 75.2 0 0 194.99 133.91
  L 194.98 67.73
  A 2.19 2.18 -75.0 0 0 193.90 65.84
  L 172.60 53.37
  A 0.53 0.53 0.0 0 0 171.80 53.90
  Q 171.92 54.85 171.92 55.77
  Q 172.06 88.00 172.00 120.28
  A 1.22 1.22 0.0 0 1 171.45 121.30
  Z
  M 43.53 111.68
  L 99.79 79.30
  A 0.87 0.87 0.0 0 0 99.79 77.79
  L 79.04 65.91
  A 1.82 1.80 -44.7 0 0 77.25 65.91
  Q 51.08 80.93 23.80 96.73
  Q 21.86 97.85 20.13 98.55
  A 1.04 1.04 0.0 0 0 19.47 99.52
  L 19.44 166.74
  A 2.21 2.21 0.0 0 0 20.54 168.65
  L 41.29 180.66
  A 0.51 0.50 -45.6 0 0 41.81 180.65
  Q 42.15 180.43 42.15 180.04
  Q 42.17 146.66 42.19 113.99
  A 2.67 2.66 -15.0 0 1 43.53 111.68
  Z
  M 53.84 188.10
  Q 80.22 203.15 106.65 218.54
  A 1.26 1.24 -44.6 0 0 107.90 218.54
  L 129.11 206.32
  A 0.68 0.67 45.1 0 0 129.11 205.15
  L 72.13 172.32
  A 1.84 1.82 15.2 0 1 71.21 170.74
  L 71.22 104.04
  A 0.48 0.48 0.0 0 0 70.50 103.63
  L 49.88 115.34
  Q 48.32 116.23 48.32 118.03
  Q 48.41 150.42 48.35 182.98
  C 48.35 185.73 51.83 186.95 53.84 188.10
  Z
  M 136.50 175.61
  A 1.13 1.11 44.6 0 1 135.37 175.61
  Q 109.58 160.60 80.31 143.71
  Q 79.11 143.02 77.89 142.55
  Q 77.19 142.28 77.18 143.04
  L 77.14 167.24
  A 1.92 1.90 15.4 0 0 78.10 168.91
  L 135.44 201.87
  A 1.21 1.19 -44.6 0 0 136.63 201.87
  L 193.77 169.03
  Q 194.96 168.35 194.97 166.98
  L 194.99 142.92
  A 0.60 0.60 0.0 0 0 194.09 142.40
  L 136.50 175.61
  Z"
/>
<path fill="#242931" d="
  M 142.62 61.86
  L 85.22 28.74
  A 0.58 0.58 0.0 0 1 85.22 27.73
  L 106.21 15.63
  A 1.83 1.82 44.7 0 1 108.04 15.63
  L 165.31 48.72
  A 1.21 1.21 0.0 0 1 165.92 49.77
  L 165.93 115.73
  A 2.18 2.17 -13.8 0 1 164.75 117.66
  C 161.10 119.55 158.00 121.36 154.29 124.04
  Q 149.42 127.56 144.08 130.31
  A 0.58 0.58 0.0 0 1 143.24 129.79
  L 143.25 62.96
  Q 143.25 62.22 142.62 61.86
  Z"
/>
<path fill="#242931" d="
  M 78.05 58.33
  L 20.53 91.59
  Q 20.00 91.90 19.53 91.50
  Q 19.36 91.36 19.36 91.15
  Q 19.55 78.28 19.43 66.66
  A 1.61 1.60 -15.3 0 1 20.24 65.25
  L 77.72 32.31
  A 1.01 1.00 44.5 0 1 78.71 32.31
  L 136.20 65.28
  A 1.68 1.66 -75.2 0 1 137.03 66.73
  L 137.04 91.28
  A 0.57 0.57 0.0 0 1 136.18 91.77
  L 78.45 58.33
  Q 78.25 58.21 78.05 58.33
  Z"
/>
<path fill="#242931" d="
  M 171.45 121.30
  A 1.22 1.22 0.0 0 0 172.00 120.28
  Q 172.06 88.00 171.92 55.77
  Q 171.92 54.85 171.80 53.90
  A 0.53 0.53 0.0 0 1 172.60 53.37
  L 193.90 65.84
  A 2.19 2.18 -75.0 0 1 194.98 67.73
  L 194.99 133.91
  A 1.78 1.77 75.2 0 1 194.10 135.45
  L 136.40 168.75
  Q 136.01 168.98 135.62 168.75
  L 113.78 155.92
  A 0.39 0.39 0.0 0 1 113.78 155.25
  Q 137.38 141.89 164.22 126.37
  C 166.79 124.89 168.98 122.93 171.45 121.30
  Z"
/>
<path fill="#242931" d="
  M 43.53 111.68
  A 2.67 2.66 -15.0 0 0 42.19 113.99
  Q 42.17 146.66 42.15 180.04
  Q 42.15 180.43 41.81 180.65
  A 0.51 0.50 -45.6 0 1 41.29 180.66
  L 20.54 168.65
  A 2.21 2.21 0.0 0 1 19.44 166.74
  L 19.47 99.52
  A 1.04 1.04 0.0 0 1 20.13 98.55
  Q 21.86 97.85 23.80 96.73
  Q 51.08 80.93 77.25 65.91
  A 1.82 1.80 -44.7 0 1 79.04 65.91
  L 99.79 77.79
  A 0.87 0.87 0.0 0 1 99.79 79.30
  L 43.53 111.68
  Z"
/>
<path fill="#242931" d="
  M 53.84 188.10
  C 51.83 186.95 48.35 185.73 48.35 182.98
  Q 48.41 150.42 48.32 118.03
  Q 48.32 116.23 49.88 115.34
  L 70.50 103.63
  A 0.48 0.48 0.0 0 1 71.22 104.04
  L 71.21 170.74
  A 1.84 1.82 15.2 0 0 72.13 172.32
  L 129.11 205.15
  A 0.68 0.67 45.1 0 1 129.11 206.32
  L 107.90 218.54
  A 1.26 1.24 -44.6 0 1 106.65 218.54
  Q 80.22 203.15 53.84 188.10
  Z"
/>
<path fill="#242931" d="
  M 136.50 175.61
  L 194.09 142.40
  A 0.60 0.60 0.0 0 1 194.99 142.92
  L 194.97 166.98
  Q 194.96 168.35 193.77 169.03
  L 136.63 201.87
  A 1.21 1.19 -44.6 0 1 135.44 201.87
  L 78.10 168.91
  A 1.92 1.90 15.4 0 1 77.14 167.24
  L 77.18 143.04
  Q 77.19 142.28 77.89 142.55
  Q 79.11 143.02 80.31 143.71
  Q 109.58 160.60 135.37 175.61
  A 1.13 1.11 44.6 0 0 136.50 175.61
  Z"
/>
</svg>
